<svg width="30" height="30" viewBox="0 0 30 30" fill="none" xmlns="http://www.w3.org/2000/svg">
<path d="M15 2.5C8.1125 2.5 2.5 8.1125 2.5 15C2.5 21.8875 8.1125 27.5 15 27.5C21.8875 27.5 27.5 21.8875 27.5 15C27.5 8.1125 21.8875 2.5 15 2.5ZM17.2375 18.75C17.6 19.1125 17.6 19.7125 17.2375 20.075C17.05 20.2625 16.8125 20.35 16.575 20.35C16.3375 20.35 16.1 20.2625 15.9125 20.075L11.5 15.6625C11.1375 15.3 11.1375 14.7 11.5 14.3375L15.9125 9.925C16.275 9.5625 16.875 9.5625 17.2375 9.925C17.6 10.2875 17.6 10.8875 17.2375 11.25L13.4875 15L17.2375 18.75Z" fill="#0096FF"/>
</svg>
