<svg width="30" height="30" viewBox="0 0 30 30" fill="none" xmlns="http://www.w3.org/2000/svg">
<path d="M15 27.5C21.8875 27.5 27.5 21.8875 27.5 15C27.5 8.1125 21.8875 2.5 15 2.5C8.1125 2.5 2.5 8.1125 2.5 15C2.5 21.8875 8.1125 27.5 15 27.5ZM12.7625 11.25C12.4 10.8875 12.4 10.2875 12.7625 9.925C12.95 9.7375 13.1875 9.65 13.425 9.65C13.6625 9.65 13.9 9.7375 14.0875 9.925L18.5 14.3375C18.8625 14.7 18.8625 15.3 18.5 15.6625L14.0875 20.075C13.725 20.4375 13.125 20.4375 12.7625 20.075C12.4 19.7125 12.4 19.1125 12.7625 18.75L16.5125 15L12.7625 11.25Z" fill="#0096FF"/>
</svg>
