<?xml version="1.0" encoding="iso-8859-1"?>
<!-- Uploaded to: SVG Repo, www.svgrepo.com, Generator: SVG Repo Mixer Tools -->
<!DOCTYPE svg PUBLIC "-//W3C//DTD SVG 1.1//EN" "http://www.w3.org/Graphics/SVG/1.1/DTD/svg11.dtd">
<svg fill="#000000" version="1.1" id="Capa_1" xmlns="http://www.w3.org/2000/svg" xmlns:xlink="http://www.w3.org/1999/xlink" 
	 width="800px" height="800px" viewBox="0 0 47.628 47.628"
	 xml:space="preserve">
<g>
	<path d="M36.5,5.887c0,1.771-1.438,3.211-3.211,3.211H14.341c-1.773,0-3.211-1.438-3.211-3.211c0-1.773,1.438-3.211,3.211-3.211
		h2.862C17.459,1.159,18.77,0,20.359,0h6.909c1.59,0,2.901,1.159,3.157,2.676h2.861C35.061,2.675,36.5,4.114,36.5,5.887z
		 M42.544,10.704v32.108c0,2.66-2.155,4.815-4.815,4.815H9.9c-2.66,0-4.816-2.155-4.816-4.815V10.704
		c0-2.351,1.687-4.302,3.915-4.725c0.05,2.912,2.418,5.26,5.342,5.26h18.948c2.924,0,5.291-2.348,5.342-5.26
		C40.857,6.401,42.544,8.353,42.544,10.704z M37.49,18.764c-1.254-1.254-3.287-1.255-4.541-0.001L21.092,30.619l-6.412-6.408
		c-1.253-1.254-3.286-1.253-4.541,0.002c-1.253,1.254-1.252,3.287,0.002,4.541l8.682,8.678c0.627,0.625,1.447,0.939,2.27,0.939
		c0.821,0,1.644-0.314,2.27-0.941l14.129-14.125C38.744,22.049,38.744,20.017,37.49,18.764z"/>
</g>
</svg>